# This file uses centimeters as units for non-parametric coordinates.

g default
v -3.215500 -0.730400 0.000000
v -0.199300 5.674000 0.000000
v 1.832700 5.674000 0.000000
v -1.287500 0.827000 0.000000
v -3.215500 -0.730400 0.419100
v -1.287500 0.827000 0.419100
v 1.832700 5.674000 0.419100
v -0.199300 5.674000 0.419100
v 1.970400 1.197200 0.000000
v 0.153600 0.047700 0.000000
v 1.970400 1.197200 0.419100
v 0.153600 0.047700 0.419100
v 0.052700 -3.759900 -0.055600
v -0.595300 -3.759900 -0.055600
v 0.052700 -3.759900 0.475200
v -0.595300 -3.759900 0.475200
v -0.647600 -5.490500 0.003500
v 0.528100 -3.759900 -0.055600
v 0.528100 -3.759900 0.475200
v -0.647600 -5.490500 0.416100
v -1.112900 -3.759900 0.475200
v -1.112900 -3.759900 -0.055600
vt 0.364254 0.813509
vt 0.364254 0.927450
vt 0.337495 0.927450
vt 0.337495 0.813509
vt 0.339144 0.813509
vt 0.365904 0.813509
vt 0.365904 0.927450
vt 0.339144 0.927450
vt 0.339144 0.813509
vt 0.453086 0.813509
vt 0.453086 0.813509
vt 0.339144 0.813509
vt 0.339144 0.813509
vt 0.365904 0.813509
vt 0.365904 0.813509
vt 0.339144 0.813509
vt 0.339144 0.813509
vt 0.453086 0.813509
vt 0.453086 0.813509
vt 0.339144 0.813509
vt 0.339144 0.813509
vt 0.365904 0.813509
vt 0.365904 0.813509
vt 0.339144 0.813509
vt 0.365904 0.813509
vt 0.365904 0.813509
vt 0.365904 0.813509
vt 0.339144 0.813509
vt 0.365904 0.813509
vt 0.339144 0.813509
vt 0.339144 0.813509
vt 0.339144 0.813509
vt 0.339144 0.813509
vt 0.365904 0.813509
vt 0.365904 0.813509
vt 0.339144 0.813509
vt 0.365904 0.813509
vt 0.365904 0.813509
vt 0.365904 0.813509
vt 0.365904 0.813509
vt 0.365904 0.813509
vt 0.339144 0.813509
vt 0.339144 0.813509
vt 0.365904 0.813509
vt 0.339144 0.813509
vt 0.339144 0.813509
vt 0.339144 0.813509
vt 0.339144 0.813509
vt 0.339144 0.813509
vt 0.365904 0.813509
vt 0.352523 0.813509
vt 0.365904 0.813509
vt 0.365904 0.813509
vt 0.352523 0.813509
vt 0.365904 0.813509
vt 0.339144 0.813509
vt 0.352523 0.813509
vt 0.339144 0.813509
vt 0.339144 0.813509
vt 0.352523 0.813509
vt 0.365904 0.813509
vt 0.365904 0.813509
vt 0.365904 0.813509
vt 0.365904 0.813509
vt 0.365904 0.813509
vt 0.352523 0.813509
vt 0.365904 0.813509
vt 0.365904 0.813509
vt 0.365904 0.813509
vt 0.339144 0.813509
vt 0.339144 0.813509
vt 0.339144 0.813509
vt 0.339144 0.813509
vt 0.339144 0.813509
vt 0.339144 0.813509
vt 0.352523 0.813509
vt 0.339144 0.813509
vt 0.339144 0.813509
vn -0.649942 -0.524334 -0.550136
vn -0.426905 0.672909 -0.604108
vn 0.205594 0.127696 -0.970271
vn 0.731376 0.398987 -0.553082
vn -0.649942 -0.524334 0.550136
vn 0.205594 0.127696 0.970271
vn -0.426905 0.672909 0.604108
vn 0.731376 0.398987 0.553082
vn 0.205594 0.127696 -0.970271
vn 0.731376 0.398987 -0.553082
vn 0.205594 0.127696 0.970271
vn 0.731376 0.398987 0.553082
vn 0.731376 0.398987 -0.553082
vn -0.426905 0.672909 -0.604108
vn 0.731376 0.398987 0.553082
vn -0.426905 0.672909 0.604108
vn -0.426905 0.672909 -0.604108
vn -0.649942 -0.524334 -0.550136
vn -0.426905 0.672909 0.604108
vn -0.649942 -0.524334 0.550136
vn -0.649942 -0.524334 -0.550136
vn 0.205594 0.127696 -0.970271
vn -0.226695 -0.219195 -0.948980
vn 0.657989 0.509391 -0.554591
vn 0.205594 0.127696 -0.970271
vn 0.205594 0.127696 0.970271
vn 0.657989 0.509391 -0.554591
vn 0.657989 0.509391 0.554591
vn -0.649942 -0.524334 0.550136
vn -0.226795 -0.219095 0.948979
vn 0.205594 0.127696 0.970271
vn 0.657989 0.509391 0.554591
vn -0.649942 -0.524334 0.550136
vn -0.649942 -0.524334 -0.550136
vn -0.226795 -0.219095 0.948979
vn -0.226695 -0.219195 -0.948980
vn 0.657989 0.509391 -0.554591
vn 0.271300 0.172000 -0.947002
vn -0.226695 -0.219195 -0.948980
vn -0.300004 0.350505 -0.887211
vn 0.657989 0.509391 -0.554591
vn 0.657989 0.509391 0.554591
vn 0.271300 0.172000 -0.947002
vn 0.271300 0.172000 0.947002
vn 0.657989 0.509391 0.554591
vn -0.226795 -0.219095 0.948979
vn 0.271300 0.172000 0.947002
vn -0.300004 0.350505 0.887211
vn -0.226795 -0.219095 0.948979
vn -0.226695 -0.219195 -0.948980
vn -0.300004 0.350505 0.887211
vn -0.300004 0.350505 -0.887211
vn -0.300004 0.350505 -0.887211
vn 0.271300 0.172000 -0.947002
vn -0.140296 -0.834476 -0.532885
vn 0.733469 0.385583 -0.559776
vn 0.733469 0.385583 0.559776
vn -0.140296 -0.834476 -0.532885
vn -0.140296 -0.834476 0.532885
vn 0.271300 0.172000 0.947002
vn -0.300004 0.350505 0.887211
vn -0.140296 -0.834476 0.532885
vn -0.652201 0.494901 0.574201
vn -0.652201 0.494901 -0.574201
vn -0.140296 -0.834476 0.532885
vn -0.140296 -0.834476 -0.532885
vn 0.271300 0.172000 -0.947002
vn 0.271300 0.172000 0.947002
vn 0.733469 0.385583 -0.559776
vn 0.733469 0.385583 0.559776
vn 0.271300 0.172000 0.947002
vn -0.140296 -0.834476 0.532885
vn 0.733469 0.385583 0.559776
vn -0.140296 -0.834476 -0.532885
vn 0.271300 0.172000 -0.947002
vn 0.733469 0.385583 -0.559776
vn -0.300004 0.350505 0.887211
vn -0.300004 0.350505 -0.887211
vn -0.652201 0.494901 0.574201
vn -0.652201 0.494901 -0.574201
vn -0.300004 0.350505 -0.887211
vn -0.140296 -0.834476 -0.532885
vn -0.652201 0.494901 -0.574201
vn -0.140296 -0.834476 0.532885
vn -0.300004 0.350505 0.887211
vn -0.652201 0.494901 0.574201
s 1
g EnergeyIcon:Power
f 1/1/1 2/2/2 4/4/3
f 4/4/3 2/2/2 3/3/4
s 2
f 5/5/5 6/6/6 8/8/7
f 8/8/7 6/6/6 7/7/8
s 3
f 4/9/9 3/10/10 6/12/11
f 6/12/11 3/10/10 7/11/12
s 4
f 3/13/13 2/14/14 7/16/15
f 7/16/15 2/14/14 8/15/16
s 5
f 2/17/17 1/18/18 8/20/19
f 8/20/19 1/18/18 5/19/20
s 6
f 1/21/21 4/22/22 10/24/23
f 10/24/23 4/22/22 9/23/24
s 7
f 4/25/25 6/6/26 9/27/27
f 9/27/27 6/6/26 11/26/28
s 8
f 5/5/29 12/28/30 6/6/31
f 6/6/31 12/28/30 11/29/32
s 9
f 5/5/33 1/30/34 12/32/35
f 12/32/35 1/30/34 10/31/36
s 10
f 9/34/37 13/35/38 10/33/39
f 10/33/39 13/35/38 14/36/40
s 11
f 9/37/41 11/38/42 13/40/43
f 13/40/43 11/38/42 15/39/44
s 12
f 11/41/45 12/42/46 15/44/47
f 15/44/47 12/42/46 16/43/48
s 13
f 12/45/49 10/46/50 16/48/51
f 16/48/51 10/46/50 14/47/52
s off
f 14/49/53 13/50/54 17/51/55
s 14
f 18/52/56 19/53/57 17/51/58
f 17/51/58 19/53/57 20/54/59
s off
f 15/55/60 16/56/61 20/57/62
s 15
f 21/58/63 22/59/64 20/60/65
f 20/60/65 22/59/64 17/51/66
s 16
f 13/61/67 15/62/68 18/64/69
f 18/64/69 15/62/68 19/63/70
s off
f 15/65/71 20/66/72 19/67/73
f 17/51/74 13/68/75 18/69/76
s 17
f 16/70/77 14/71/78 21/73/79
f 21/73/79 14/71/78 22/72/80
s off
f 14/74/81 17/51/82 22/75/83
f 20/76/84 16/77/85 21/78/86
